<svg width="66" height="66" viewBox="0 0 66 66" fill="none" xmlns="http://www.w3.org/2000/svg">
<path d="M28.1311 36.42C28.8686 36.8851 29.4849 37.1747 30.3737 37.456C31.3521 37.7705 32.1859 37.9023 33.2567 37.9023C35.0946 37.9033 36.8139 37.4109 38.3952 36.4288C38.6415 36.2747 38.8009 36.1645 39.0318 35.9623L38.3498 34.3665C36.3807 35.6687 33.9176 36.1743 31.5552 35.7344C30.2899 35.5033 29.1068 35.0064 28.0794 34.3007L27.4116 35.8886C27.6724 36.1171 27.8503 36.243 28.1311 36.42Z" fill="url(#paint0_linear_5_1658)"/>
<ellipse cx="33.2787" cy="45.1763" rx="6.50175" ry="6.2474" fill="url(#paint1_linear_5_1658)"/>
<path fill-rule="evenodd" clip-rule="evenodd" d="M31.9291 10.323C33.6814 9.64275 35.6925 10.496 36.4211 12.2287L50.9601 46.8061C51.6886 48.5389 50.8588 50.495 49.1065 51.1753C47.3542 51.8555 45.343 51.0023 44.6145 49.2696L39.0225 35.9704C39.2048 35.8113 39.431 35.595 39.7812 35.2528C40.5573 34.5018 40.7124 34.3291 40.9836 33.9241C42.3354 31.8877 42.8022 29.5663 42.3153 27.2895C42.1688 26.6053 42.161 26.5978 42.1631 27.2039C42.1738 29.1308 41.5921 30.91 40.4564 32.3919C40.1464 32.8046 39.1957 33.7471 38.7957 34.0515C38.6497 34.1615 38.5006 34.2668 38.3484 34.3674L30.0755 14.6922C29.3469 12.9594 30.1768 11.0033 31.9291 10.323Z" fill="url(#paint2_linear_5_1658)"/>
<path fill-rule="evenodd" clip-rule="evenodd" d="M34.4846 10.312C32.7324 9.6317 30.7212 10.4849 29.9926 12.2177L15.4537 46.795C14.7251 48.5278 15.555 50.484 17.3073 51.1642C19.0596 51.8445 21.0707 50.9913 21.7993 49.2585L27.4185 35.8947C27.2502 35.7476 27.0477 35.5579 26.7603 35.2836C26.0414 34.5902 25.8772 34.4112 25.5993 34.0044C24.703 32.6793 24.2115 31.3378 24.0622 29.8455C23.9812 28.9628 24.0364 28.0609 24.228 27.1697C24.2779 26.9488 24.3239 26.7541 24.3317 26.7466C24.3394 26.7391 24.3523 27.087 24.3616 27.521C24.3855 28.7668 24.6345 29.8322 25.168 30.9304C25.8259 32.294 26.8423 33.4528 28.0866 34.3057L36.3382 14.6812C37.0668 12.9484 36.2369 10.9922 34.4846 10.312Z" fill="url(#paint3_linear_5_1658)"/>
<path d="M66 33C66 51.2254 51.2254 66 33 66C14.7746 66 0 51.2254 0 33C0 14.7746 14.7746 0 33 0C51.2254 0 66 14.7746 66 33ZM6.61572 33C6.61572 47.5716 18.4284 59.3843 33 59.3843C47.5716 59.3843 59.3843 47.5716 59.3843 33C59.3843 18.4284 47.5716 6.61572 33 6.61572C18.4284 6.61572 6.61572 18.4284 6.61572 33Z" fill="url(#paint4_linear_5_1658)"/>
<defs>
<linearGradient id="paint0_linear_5_1658" x1="37.0197" y1="36.0553" x2="29.3057" y2="34.0168" gradientUnits="userSpaceOnUse">
<stop stop-color="#FFB45B"/>
<stop offset="1" stop-color="#FF8A00"/>
</linearGradient>
<linearGradient id="paint1_linear_5_1658" x1="36.5642" y1="40.8184" x2="31.0758" y2="50.6697" gradientUnits="userSpaceOnUse">
<stop stop-color="#FFB45B"/>
<stop offset="1" stop-color="#FF8A00"/>
</linearGradient>
<linearGradient id="paint2_linear_5_1658" x1="45.928" y1="16.3374" x2="24.7166" y2="35.2958" gradientUnits="userSpaceOnUse">
<stop stop-color="#FFB45B"/>
<stop offset="1" stop-color="#FF8A00"/>
</linearGradient>
<linearGradient id="paint3_linear_5_1658" x1="31.3061" y1="16.3264" x2="10.0948" y2="35.2848" gradientUnits="userSpaceOnUse">
<stop stop-color="#FFB45B"/>
<stop offset="1" stop-color="#FF8A00"/>
</linearGradient>
<linearGradient id="paint4_linear_5_1658" x1="49.6754" y1="9.98049" x2="20.0865" y2="61.0132" gradientUnits="userSpaceOnUse">
<stop stop-color="#FFB45B"/>
<stop offset="1" stop-color="#FF8A00"/>
</linearGradient>
</defs>
</svg>
