<?xml version="1.0" standalone="no"?>
<!DOCTYPE svg PUBLIC "-//W3C//DTD SVG 20010904//EN"
 "http://www.w3.org/TR/2001/REC-SVG-20010904/DTD/svg10.dtd">
<svg version="1.0" xmlns="http://www.w3.org/2000/svg"
 width="2000.000000pt" height="800.000000pt" viewBox="0 0 2000.000000 800.000000"
 preserveAspectRatio="xMidYMid meet">

<g transform="translate(0.000000,800.000000) scale(0.100000,-0.100000)"
fill="#000000" stroke="none">
<path d="M1600 5856 c-92 -20 -137 -52 -176 -126 -17 -31 -19 -64 -22 -272
l-3 -238 385 0 386 0 -2 323 -3 322 -255 2 c-171 1 -273 -3 -310 -11z"/>
<path d="M2560 5545 l0 -325 540 0 540 0 0 -1505 0 -1505 380 0 380 0 0 1505
0 1505 541 0 541 0 -4 178 c-5 199 -14 235 -76 317 -21 28 -62 67 -92 87 -105
71 -30 68 -1462 68 l-1288 0 0 -325z"/>
<path d="M10617 5864 c-4 -4 -7 -828 -7 -1831 l0 -1823 365 0 365 0 0 783 c0
637 3 800 15 880 44 291 179 483 393 559 73 25 244 35 325 19 79 -17 183 -71
240 -126 57 -54 130 -165 163 -245 55 -137 56 -157 61 -1047 l4 -823 355 0
355 0 -4 953 c-3 928 -4 954 -24 1045 -57 246 -127 383 -282 545 -315 331
-748 437 -1169 285 -150 -54 -307 -177 -396 -309 l-35 -53 -3 460 -3 459 -27
57 c-37 79 -98 142 -177 181 l-65 32 -221 3 c-121 2 -223 0 -228 -4z"/>
<path d="M14893 5860 c-107 -22 -202 -91 -248 -181 -19 -38 -1235 -3447 -1235
-3464 0 -3 179 -4 397 -3 l397 3 116 375 116 375 711 3 712 2 124 -377 123
-378 398 -3 c376 -2 397 -1 391 15 -3 10 -301 833 -663 1828 l-658 1810 -319
1 c-176 1 -339 -2 -362 -6z m513 -1506 c138 -420 249 -766 246 -769 -3 -3
-232 -5 -509 -5 -430 0 -504 2 -501 14 11 50 504 1533 508 1529 3 -2 118 -348
256 -769z"/>
<path d="M18774 5857 c-2 -7 -3 -742 -2 -1632 3 -1516 4 -1624 21 -1679 29
-98 53 -143 107 -200 59 -62 134 -100 230 -115 111 -18 508 -33 663 -26 l148
7 -3 257 c-3 236 -5 259 -23 291 -32 54 -72 71 -185 80 -114 9 -164 29 -197
79 l-23 34 0 668 0 669 68 0 c148 0 276 80 336 209 19 42 21 66 24 289 l3 242
-215 0 -216 0 0 238 c0 131 -5 265 -11 297 -27 145 -127 254 -264 290 -79 20
-453 22 -461 2z"/>
<path d="M6075 5099 c-586 -39 -988 -407 -1110 -1013 -87 -435 -35 -956 127
-1281 76 -152 220 -323 358 -425 119 -88 277 -157 450 -195 99 -22 416 -31
534 -16 508 68 876 362 1025 819 16 48 27 90 24 95 -6 11 -507 8 -586 -3 -106
-16 -151 -45 -245 -158 -39 -48 -146 -106 -233 -127 -35 -8 -109 -15 -164 -15
-179 0 -287 40 -391 144 -103 103 -158 241 -178 449 l-6 57 920 0 920 0 6 26
c14 54 -3 436 -25 559 -35 200 -99 385 -181 525 -233 399 -673 597 -1245 559z
m309 -634 c140 -37 249 -125 307 -249 29 -62 69 -222 69 -278 l0 -28 -540 0
-540 0 6 58 c10 93 44 208 80 269 63 107 194 204 310 232 64 15 244 13 308 -4z"/>
<path d="M8930 5099 c-524 -32 -903 -326 -1069 -828 -121 -367 -120 -899 3
-1275 134 -407 423 -690 807 -790 154 -41 243 -49 447 -43 316 9 543 77 751
224 201 142 345 335 430 576 49 140 74 127 -231 127 -269 0 -367 -9 -422 -37
-17 -9 -72 -55 -121 -104 -133 -130 -231 -169 -423 -169 -179 0 -299 47 -400
154 -138 148 -202 370 -202 699 0 485 137 759 415 832 77 20 243 20 320 0 127
-34 245 -126 305 -238 l25 -47 372 0 c205 0 373 4 373 8 0 5 -13 46 -29 93
-86 255 -232 463 -416 595 -233 166 -566 245 -935 223z"/>
<path d="M18330 5033 c-206 -19 -383 -56 -530 -109 -357 -128 -610 -394 -728
-764 -75 -235 -82 -342 -82 -1217 l0 -733 375 0 375 0 0 795 c0 686 2 806 16
872 32 156 115 273 237 335 107 54 145 60 377 67 l215 6 3 378 2 377 -112 -2
c-62 0 -129 -3 -148 -5z"/>
<path d="M445 4903 c-104 -23 -167 -69 -202 -148 -16 -35 -18 -77 -21 -332
l-3 -293 390 0 391 0 0 390 0 390 -267 -1 c-148 -1 -277 -3 -288 -6z"/>
<path d="M1400 3560 l0 -1350 385 0 385 0 0 1350 0 1350 -385 0 -385 0 0
-1350z"/>
<path d="M220 2590 l0 -380 390 0 390 0 0 380 0 380 -390 0 -390 0 0 -380z"/>
</g>
</svg>
