<svg id="svg" version="1.1" xmlns="http://www.w3.org/2000/svg" xmlns:xlink="http://www.w3.org/1999/xlink" width="400" height="393.2773109243698" viewBox="0, 0, 400,393.2773109243698"><g id="svgg"><path id="path0" d="M106.519 64.387 L 104.680 64.544 104.436 66.982 C 104.302 68.323,104.245 124.376,104.309 191.544 L 104.425 313.668 133.333 313.668 L 162.242 313.668 162.343 290.731 L 162.445 267.795 163.511 267.919 C 164.352 268.017,164.657 268.334,164.958 269.420 C 165.168 270.177,165.466 270.885,165.621 270.993 C 165.895 271.186,169.105 276.516,169.647 277.679 C 169.798 278.004,170.456 279.154,171.110 280.236 C 171.763 281.318,172.510 282.645,172.768 283.186 C 173.027 283.727,173.344 284.258,173.472 284.366 C 173.600 284.474,173.832 284.828,173.987 285.152 C 174.142 285.477,174.484 286.096,174.748 286.529 C 175.717 288.120,179.088 294.037,179.677 295.182 C 180.011 295.831,180.870 297.283,181.587 298.408 C 182.304 299.533,182.891 300.554,182.891 300.677 C 182.891 300.800,183.373 301.649,183.962 302.564 C 185.320 304.673,185.620 305.195,187.398 308.555 C 188.200 310.069,189.293 311.883,189.827 312.586 L 190.797 313.864 224.012 313.864 C 242.334 313.864,257.227 313.712,257.227 313.525 C 257.227 313.339,256.495 311.879,255.600 310.281 C 254.705 308.682,253.309 306.192,252.498 304.747 C 251.687 303.302,250.207 300.809,249.209 299.208 C 248.211 297.606,247.394 296.174,247.394 296.026 C 247.394 295.878,246.950 295.052,246.407 294.192 C 245.864 293.332,244.915 291.699,244.297 290.562 C 243.680 289.425,242.254 286.903,241.127 284.956 C 238.946 281.185,238.694 280.758,237.179 278.284 C 236.645 277.411,235.686 275.723,235.050 274.533 C 234.413 273.343,233.199 271.236,232.351 269.851 C 231.503 268.466,230.645 266.962,230.443 266.508 C 230.242 266.054,229.770 265.214,229.394 264.640 C 228.749 263.652,226.369 259.638,224.888 257.040 C 224.515 256.386,224.096 255.541,223.957 255.162 C 223.818 254.784,223.559 254.474,223.383 254.474 C 223.206 254.474,222.953 254.130,222.820 253.710 C 222.549 252.857,219.860 248.113,216.121 241.888 C 214.756 239.617,213.038 236.608,212.302 235.202 C 211.566 233.795,209.540 230.256,207.801 227.335 C 200.913 215.773,200.946 215.961,205.506 214.426 C 210.182 212.852,217.362 209.597,219.309 208.169 C 219.979 207.678,220.659 207.276,220.822 207.276 C 221.186 207.276,226.597 203.746,227.139 203.155 C 227.355 202.919,228.594 201.909,229.892 200.910 C 238.744 194.100,247.510 182.431,251.920 171.589 C 252.691 169.693,253.468 167.788,253.647 167.355 C 254.580 165.103,255.706 160.798,257.093 154.179 C 258.116 149.301,258.113 132.179,257.088 127.630 C 256.399 124.569,254.492 117.816,253.645 115.438 C 253.414 114.789,253.085 113.696,252.914 113.009 C 252.744 112.323,252.266 111.261,251.852 110.650 C 251.439 110.038,250.248 107.790,249.206 105.653 C 243.016 92.965,231.752 81.332,218.879 74.331 C 217.581 73.625,215.730 72.612,214.765 72.080 C 213.800 71.549,212.119 70.772,211.029 70.354 C 209.938 69.936,208.692 69.446,208.260 69.264 C 204.289 67.595,197.583 65.978,191.845 65.307 C 190.173 65.111,188.608 64.830,188.369 64.683 C 187.910 64.399,109.678 64.116,106.519 64.387 " stroke="none" fill="#0760c9" fill-rule="evenodd"></path><path id="path1" d="M0.000 196.657 L 0.000 393.314 200.000 393.314 L 400.000 393.314 400.000 196.657 L 400.000 0.000 200.000 0.000 L 0.000 0.000 0.000 196.657 M188.594 63.703 C 193.290 64.049,196.927 64.634,198.427 65.285 C 198.859 65.473,199.921 65.742,200.787 65.882 C 202.640 66.183,206.005 67.160,206.976 67.678 C 207.352 67.879,207.856 68.043,208.096 68.043 C 208.617 68.043,210.155 68.704,215.054 71.030 C 217.061 71.983,218.776 72.763,218.865 72.763 C 221.555 72.763,237.651 86.642,242.584 93.215 C 243.802 94.838,244.906 96.254,245.039 96.362 C 245.171 96.470,245.965 97.709,246.804 99.115 C 247.643 100.521,248.445 101.760,248.587 101.868 C 248.728 101.976,249.536 103.435,250.381 105.110 C 251.226 106.785,252.213 108.732,252.575 109.436 C 252.937 110.141,253.612 111.868,254.074 113.274 C 254.537 114.680,255.067 116.185,255.253 116.618 C 255.557 117.327,257.163 123.309,258.422 128.417 C 259.128 131.286,259.419 147.955,258.809 150.665 C 258.545 151.840,258.183 153.864,258.006 155.162 C 257.572 158.341,256.893 161.194,256.215 162.695 C 255.906 163.376,255.654 164.384,255.654 164.933 C 255.654 165.482,255.477 166.041,255.261 166.175 C 255.044 166.309,254.867 166.683,254.867 167.006 C 254.867 167.330,254.504 168.426,254.059 169.441 C 253.615 170.457,253.110 171.642,252.938 172.075 C 251.978 174.489,248.940 180.278,247.493 182.451 C 246.573 183.832,245.821 185.034,245.821 185.122 C 245.821 186.854,233.884 199.324,228.122 203.611 C 222.264 207.970,213.192 213.176,211.454 213.176 C 211.186 213.176,210.623 213.436,210.203 213.753 C 209.783 214.071,209.144 214.337,208.783 214.343 C 208.422 214.350,207.626 214.614,207.013 214.929 C 206.401 215.244,205.324 215.730,204.621 216.008 C 202.992 216.654,203.013 216.950,204.916 220.059 C 205.782 221.473,206.490 222.892,206.490 223.212 C 206.490 223.533,206.626 223.795,206.793 223.795 C 206.960 223.795,207.535 224.635,208.071 225.661 C 208.607 226.688,209.975 229.060,211.111 230.933 C 212.247 232.806,213.176 234.436,213.176 234.555 C 213.176 234.675,214.381 236.772,215.854 239.215 C 217.327 241.659,218.656 243.923,218.808 244.248 C 218.960 244.572,219.426 245.369,219.844 246.018 C 220.262 246.667,221.062 248.083,221.623 249.164 C 223.079 251.974,224.470 254.350,226.114 256.834 C 226.901 258.024,228.054 259.971,228.676 261.160 C 229.297 262.350,230.400 264.320,231.127 265.538 C 231.854 266.756,232.448 267.951,232.448 268.193 C 232.448 268.435,232.581 268.634,232.743 268.636 C 232.906 268.637,233.376 269.212,233.789 269.914 C 235.480 272.789,237.613 276.740,237.823 277.384 C 237.946 277.763,238.203 278.073,238.394 278.073 C 238.585 278.073,238.741 278.295,238.741 278.566 C 238.741 278.837,239.361 279.930,240.118 280.995 C 240.875 282.060,241.495 283.085,241.495 283.274 C 241.495 283.463,242.152 284.626,242.956 285.860 C 243.759 287.093,244.724 288.765,245.099 289.575 C 246.116 291.772,252.575 302.968,253.171 303.568 C 253.455 303.854,253.687 304.249,253.687 304.446 C 253.687 304.643,254.366 305.914,255.195 307.269 C 257.801 311.532,258.800 313.474,258.800 314.274 C 258.800 315.039,258.397 315.047,224.319 314.948 L 189.838 314.848 189.122 313.668 C 188.728 313.019,188.282 312.222,188.130 311.898 C 187.978 311.573,186.648 309.309,185.175 306.865 C 183.703 304.422,182.498 302.313,182.498 302.178 C 182.498 302.044,181.701 300.656,180.728 299.095 C 179.754 297.533,178.958 296.149,178.958 296.020 C 178.958 295.891,178.250 294.629,177.384 293.215 C 176.519 291.802,175.811 290.541,175.811 290.414 C 175.811 290.287,175.280 289.396,174.631 288.435 C 173.982 287.473,173.451 286.604,173.451 286.503 C 173.451 286.402,172.655 285.007,171.681 283.403 C 170.708 281.800,169.912 280.395,169.912 280.282 C 169.912 280.169,168.805 278.282,167.453 276.089 C 166.101 273.896,164.797 271.754,164.554 271.328 C 163.702 269.833,163.618 271.772,163.618 292.972 C 163.618 308.881,163.502 314.217,163.147 314.572 C 162.212 315.507,103.959 315.225,103.455 314.283 C 102.805 313.068,102.906 65.791,103.557 64.503 L 104.055 63.520 143.178 63.314 C 164.695 63.201,182.655 63.164,183.088 63.232 C 183.520 63.300,185.998 63.512,188.594 63.703 M297.542 255.994 C 300.469 256.939,302.065 257.659,302.065 258.034 C 302.065 258.192,302.507 258.433,303.048 258.569 C 303.589 258.704,304.031 258.989,304.031 259.201 C 304.031 259.413,304.291 259.587,304.608 259.587 C 304.925 259.587,305.727 260.118,306.391 260.767 C 307.055 261.416,307.702 261.947,307.828 261.947 C 307.954 261.947,308.700 262.618,309.486 263.439 C 313.852 267.998,316.594 272.586,317.406 276.696 C 317.577 277.561,317.912 278.888,318.151 279.643 C 318.774 281.618,318.684 287.749,317.994 290.399 C 317.670 291.644,317.404 293.025,317.404 293.466 C 317.404 297.953,305.901 311.898,302.200 311.898 C 301.945 311.898,301.234 312.147,300.622 312.451 C 296.611 314.446,294.715 314.809,288.299 314.811 C 283.057 314.813,280.916 314.530,278.269 313.487 C 276.993 312.984,271.649 310.366,270.811 309.833 C 269.568 309.042,264.481 303.899,264.197 303.147 C 264.055 302.768,263.783 302.458,263.594 302.458 C 263.405 302.458,262.913 301.797,262.500 300.989 C 262.088 300.181,261.529 299.284,261.259 298.995 C 260.988 298.705,260.767 298.163,260.767 297.789 C 260.767 297.415,260.616 296.941,260.430 296.735 C 258.869 295.001,257.696 286.148,258.358 281.090 C 258.999 276.186,259.674 274.308,263.093 267.920 C 264.438 265.406,272.496 258.407,274.045 258.407 C 274.313 258.407,274.533 258.251,274.533 258.060 C 274.533 257.869,274.843 257.613,275.221 257.492 C 275.600 257.370,276.971 256.880,278.269 256.403 C 282.916 254.695,292.864 254.484,297.542 255.994 " stroke="none" fill="#fbfbf7" fill-rule="evenodd"></path><path id="path2" d="M143.178 63.314 L 104.055 63.520 103.557 64.503 C 102.906 65.791,102.805 313.068,103.455 314.283 C 103.959 315.225,162.212 315.507,163.147 314.572 C 163.502 314.217,163.618 308.881,163.618 292.972 C 163.618 271.772,163.702 269.833,164.554 271.328 C 164.797 271.754,166.101 273.896,167.453 276.089 C 168.805 278.282,169.912 280.169,169.912 280.282 C 169.912 280.395,170.708 281.800,171.681 283.403 C 172.655 285.007,173.451 286.402,173.451 286.503 C 173.451 286.604,173.982 287.473,174.631 288.435 C 175.280 289.396,175.811 290.287,175.811 290.414 C 175.811 290.541,176.519 291.802,177.384 293.215 C 178.250 294.629,178.958 295.891,178.958 296.020 C 178.958 296.149,179.754 297.533,180.728 299.095 C 181.701 300.656,182.498 302.044,182.498 302.178 C 182.498 302.313,183.703 304.422,185.175 306.865 C 186.648 309.309,187.978 311.573,188.130 311.898 C 188.282 312.222,188.728 313.019,189.122 313.668 L 189.838 314.848 224.319 314.948 C 258.397 315.047,258.800 315.039,258.800 314.274 C 258.800 313.474,257.801 311.532,255.195 307.269 C 254.366 305.914,253.687 304.643,253.687 304.446 C 253.687 304.249,253.455 303.854,253.171 303.568 C 252.575 302.968,246.116 291.772,245.099 289.575 C 244.724 288.765,243.759 287.093,242.956 285.860 C 242.152 284.626,241.495 283.463,241.495 283.274 C 241.495 283.085,240.875 282.060,240.118 280.995 C 239.361 279.930,238.741 278.837,238.741 278.566 C 238.741 278.295,238.585 278.073,238.394 278.073 C 238.203 278.073,237.946 277.763,237.823 277.384 C 237.613 276.740,235.480 272.789,233.789 269.914 C 233.376 269.212,232.906 268.637,232.743 268.636 C 232.581 268.634,232.448 268.435,232.448 268.193 C 232.448 267.951,231.854 266.756,231.127 265.538 C 230.400 264.320,229.297 262.350,228.676 261.160 C 228.054 259.971,226.901 258.024,226.114 256.834 C 224.470 254.350,223.079 251.974,221.623 249.164 C 221.062 248.083,220.262 246.667,219.844 246.018 C 219.426 245.369,218.960 244.572,218.808 244.248 C 218.656 243.923,217.327 241.659,215.854 239.215 C 214.381 236.772,213.176 234.675,213.176 234.555 C 213.176 234.436,212.247 232.806,211.111 230.933 C 209.975 229.060,208.607 226.688,208.071 225.661 C 207.535 224.635,206.960 223.795,206.793 223.795 C 206.626 223.795,206.490 223.533,206.490 223.212 C 206.490 222.892,205.782 221.473,204.916 220.059 C 203.013 216.950,202.992 216.654,204.621 216.008 C 205.324 215.730,206.401 215.244,207.013 214.929 C 207.626 214.614,208.422 214.350,208.783 214.343 C 209.144 214.337,209.783 214.071,210.203 213.753 C 210.623 213.436,211.186 213.176,211.454 213.176 C 213.192 213.176,222.264 207.970,228.122 203.611 C 233.884 199.324,245.821 186.854,245.821 185.122 C 245.821 185.034,246.573 183.832,247.493 182.451 C 248.940 180.278,251.978 174.489,252.938 172.075 C 253.110 171.642,253.615 170.457,254.059 169.441 C 254.504 168.426,254.867 167.330,254.867 167.006 C 254.867 166.683,255.044 166.309,255.261 166.175 C 255.477 166.041,255.654 165.482,255.654 164.933 C 255.654 164.384,255.906 163.376,256.215 162.695 C 256.893 161.194,257.572 158.341,258.006 155.162 C 258.183 153.864,258.545 151.840,258.809 150.665 C 259.419 147.955,259.128 131.286,258.422 128.417 C 257.163 123.309,255.557 117.327,255.253 116.618 C 255.067 116.185,254.537 114.680,254.074 113.274 C 253.612 111.868,252.937 110.141,252.575 109.436 C 252.213 108.732,251.226 106.785,250.381 105.110 C 249.536 103.435,248.728 101.976,248.587 101.868 C 248.445 101.760,247.643 100.521,246.804 99.115 C 245.965 97.709,245.171 96.470,245.039 96.362 C 244.906 96.254,243.802 94.838,242.584 93.215 C 237.651 86.642,221.555 72.763,218.865 72.763 C 218.776 72.763,217.061 71.983,215.054 71.030 C 210.155 68.704,208.617 68.043,208.096 68.043 C 207.856 68.043,207.352 67.879,206.976 67.678 C 206.005 67.160,202.640 66.183,200.787 65.882 C 199.921 65.742,198.859 65.473,198.427 65.285 C 196.927 64.634,193.290 64.049,188.594 63.703 C 185.998 63.512,183.520 63.300,183.088 63.232 C 182.655 63.164,164.695 63.201,143.178 63.314 M193.707 64.853 C 196.087 65.328,198.830 65.874,199.803 66.066 C 233.369 72.689,260.364 108.536,258.666 144.230 C 257.692 164.691,247.755 186.328,233.880 198.197 C 233.261 198.727,232.553 199.358,232.307 199.601 C 226.739 205.086,214.879 211.730,203.629 215.667 C 202.283 216.138,202.521 217.081,205.153 221.697 C 206.612 224.257,208.051 226.794,208.350 227.335 C 208.649 227.876,209.228 228.850,209.636 229.499 C 210.045 230.147,210.621 231.121,210.918 231.662 C 212.508 234.564,214.200 237.528,216.558 241.542 C 220.572 248.376,223.009 252.607,223.009 252.743 C 223.009 252.810,224.248 254.904,225.762 257.396 C 227.276 259.889,228.515 262.016,228.515 262.124 C 228.515 262.231,229.805 264.492,231.381 267.148 C 232.957 269.804,235.103 273.471,236.150 275.297 C 237.197 277.123,238.364 279.159,238.743 279.820 C 239.122 280.482,240.073 282.145,240.856 283.518 C 241.639 284.890,242.607 286.483,243.006 287.058 C 243.405 287.632,244.524 289.607,245.492 291.445 C 246.460 293.284,248.236 296.470,249.437 298.525 C 256.503 310.607,258.014 313.325,258.014 313.953 C 258.014 314.616,256.322 314.651,224.454 314.651 L 190.894 314.651 190.065 313.766 C 189.609 313.279,188.452 311.465,187.493 309.735 C 185.054 305.331,184.523 304.404,181.643 299.508 C 179.214 295.381,178.028 293.327,176.307 290.265 C 173.239 284.809,166.088 272.514,165.331 271.393 C 164.822 270.640,164.405 269.732,164.405 269.374 C 164.405 269.017,164.051 268.632,163.618 268.519 C 162.839 268.315,162.832 268.507,162.832 290.860 C 162.832 303.261,162.724 313.687,162.593 314.029 C 162.279 314.847,105.122 314.995,104.307 314.179 C 103.811 313.683,103.583 66.858,104.077 65.016 C 104.407 63.786,102.990 63.821,148.476 63.910 C 188.859 63.988,189.436 64.001,193.707 64.853 M286.627 255.157 C 287.763 255.237,289.621 255.237,290.757 255.157 C 291.893 255.078,290.964 255.013,288.692 255.013 C 286.421 255.013,285.492 255.078,286.627 255.157 M279.843 255.899 L 278.663 256.473 279.843 256.239 C 280.492 256.110,281.642 255.857,282.399 255.678 L 283.776 255.351 282.399 255.338 C 281.642 255.330,280.492 255.583,279.843 255.899 M296.112 256.086 C 297.706 256.514,299.697 257.215,300.537 257.644 C 301.377 258.072,302.065 258.271,302.065 258.085 C 302.065 257.406,296.012 255.255,294.199 255.290 C 293.658 255.300,294.519 255.658,296.112 256.086 M276.106 257.154 C 275.349 257.519,274.671 257.950,274.598 258.112 C 274.526 258.274,274.262 258.407,274.012 258.407 C 272.498 258.407,263.106 266.653,263.139 267.952 C 263.146 268.219,263.543 267.906,264.022 267.257 C 266.420 264.005,270.844 260.405,275.129 258.218 C 278.362 256.568,279.188 255.669,276.106 257.154 M305.533 260.570 C 306.176 261.111,306.853 261.553,307.038 261.553 C 307.223 261.553,306.860 261.110,306.232 260.570 C 305.603 260.029,304.926 259.587,304.727 259.587 C 304.527 259.587,304.890 260.029,305.533 260.570 M307.767 262.338 C 307.900 262.553,308.397 262.929,308.871 263.173 L 309.735 263.617 308.866 262.782 C 307.960 261.910,307.350 261.664,307.767 262.338 M311.255 265.994 C 312.232 267.138,313.750 269.304,314.628 270.806 C 315.506 272.308,316.224 273.331,316.224 273.080 C 316.224 272.445,313.703 268.293,312.449 266.863 C 311.880 266.214,311.149 265.285,310.824 264.798 C 310.500 264.312,310.064 263.913,309.856 263.913 C 309.647 263.913,310.277 264.850,311.255 265.994 M262.483 269.125 C 261.687 270.252,260.703 272.240,260.862 272.399 C 260.956 272.493,261.515 271.684,262.105 270.602 C 263.092 268.787,263.303 267.963,262.483 269.125 M260.200 273.395 C 259.168 276.341,258.815 277.602,258.834 278.269 C 258.845 278.702,259.115 278.171,259.433 277.089 C 259.751 276.008,260.211 274.725,260.455 274.239 C 260.700 273.752,260.785 273.240,260.646 273.101 C 260.506 272.961,260.306 273.094,260.200 273.395 M316.442 274.336 C 316.592 274.769,316.852 275.654,317.019 276.303 C 317.298 277.382,317.326 277.399,317.350 276.500 C 317.364 275.959,317.105 275.074,316.773 274.533 C 316.373 273.880,316.261 273.814,316.442 274.336 M317.682 279.253 C 318.067 280.950,318.059 288.324,317.670 290.462 C 317.412 291.881,317.431 291.939,317.866 291.052 C 318.550 289.659,318.560 279.716,317.879 278.663 C 317.431 277.971,317.407 278.041,317.682 279.253 M258.498 280.433 C 258.498 281.190,258.579 281.500,258.678 281.121 C 258.777 280.742,258.777 280.123,258.678 279.744 C 258.579 279.366,258.498 279.676,258.498 280.433 M258.048 284.399 C 258.067 285.787,258.225 287.807,258.398 288.889 C 258.606 290.183,258.643 289.375,258.507 286.529 C 258.278 281.756,257.994 280.436,258.048 284.399 M258.837 291.839 C 258.816 292.338,259.206 293.677,260.200 296.516 C 260.306 296.818,260.464 296.992,260.553 296.904 C 260.641 296.815,260.297 295.507,259.788 293.996 C 259.279 292.485,258.851 291.514,258.837 291.839 M317.064 293.282 C 316.797 297.541,309.068 307.537,303.632 310.654 C 302.446 311.334,301.743 311.892,302.070 311.894 C 306.011 311.918,318.045 297.209,317.286 293.295 L 317.118 292.429 317.064 293.282 M260.768 297.809 C 260.768 298.172,260.988 298.705,261.259 298.995 C 261.529 299.284,262.082 300.171,262.488 300.966 C 262.894 301.761,263.476 302.508,263.781 302.625 C 264.087 302.742,263.888 302.249,263.338 301.530 C 262.789 300.810,262.340 300.109,262.340 299.972 C 262.340 299.836,261.987 299.145,261.555 298.436 C 261.068 297.637,260.769 297.399,260.768 297.809 M264.307 303.402 C 264.307 303.812,270.199 309.676,270.405 309.470 C 270.496 309.380,269.160 307.910,267.438 306.204 C 265.716 304.498,264.307 303.237,264.307 303.402 M271.199 309.947 C 271.509 310.447,276.921 313.137,277.323 312.990 C 277.487 312.930,276.122 312.132,274.288 311.216 C 272.455 310.301,271.065 309.729,271.199 309.947 M300.098 312.267 C 299.774 312.445,298.889 312.866,298.132 313.202 C 297.375 313.539,297.054 313.825,297.420 313.839 C 297.786 313.853,298.195 313.687,298.328 313.471 C 298.462 313.255,298.881 313.078,299.260 313.078 C 299.638 313.078,300.292 312.818,300.711 312.500 C 301.522 311.887,301.091 311.723,300.098 312.267 M278.269 313.471 C 278.403 313.687,278.900 313.862,279.374 313.858 C 280.075 313.853,280.126 313.781,279.646 313.471 C 278.871 312.970,277.960 312.970,278.269 313.471 M281.809 314.430 C 282.784 314.803,284.505 315.011,286.332 314.977 L 289.282 314.922 286.136 314.640 C 284.405 314.485,282.370 314.239,281.613 314.093 C 280.245 313.830,280.246 313.832,281.809 314.430 M294.520 314.068 C 294.408 314.180,293.272 314.433,291.996 314.631 L 289.676 314.991 291.839 314.864 C 294.402 314.714,297.422 313.971,295.739 313.905 C 295.180 313.882,294.631 313.956,294.520 314.068 " stroke="none" fill="#96b5d8" fill-rule="evenodd"></path><path id="path3" d="M105.940 63.991 C 104.665 64.116,104.258 64.340,104.077 65.016 C 103.583 66.858,103.811 313.683,104.307 314.179 C 105.122 314.995,162.279 314.847,162.593 314.029 C 162.724 313.687,162.832 303.261,162.832 290.860 C 162.832 268.507,162.839 268.315,163.618 268.519 C 164.051 268.632,164.405 269.017,164.405 269.374 C 164.405 269.732,164.822 270.640,165.331 271.393 C 166.088 272.514,173.239 284.809,176.307 290.265 C 178.028 293.327,179.214 295.381,181.643 299.508 C 184.523 304.404,185.054 305.331,187.493 309.735 C 188.452 311.465,189.609 313.279,190.065 313.766 L 190.894 314.651 224.454 314.651 C 256.322 314.651,258.014 314.616,258.014 313.953 C 258.014 313.325,256.503 310.607,249.437 298.525 C 248.236 296.470,246.460 293.284,245.492 291.445 C 244.524 289.607,243.405 287.632,243.006 287.058 C 242.607 286.483,241.639 284.890,240.856 283.518 C 240.073 282.145,239.122 280.482,238.743 279.820 C 238.364 279.159,237.197 277.123,236.150 275.297 C 235.103 273.471,232.957 269.804,231.381 267.148 C 229.805 264.492,228.515 262.231,228.515 262.124 C 228.515 262.016,227.276 259.889,225.762 257.396 C 224.248 254.904,223.009 252.810,223.009 252.743 C 223.009 252.607,220.572 248.376,216.558 241.542 C 214.200 237.528,212.508 234.564,210.918 231.662 C 210.621 231.121,210.045 230.147,209.636 229.499 C 209.228 228.850,208.649 227.876,208.350 227.335 C 208.051 226.794,206.612 224.257,205.153 221.697 C 202.521 217.081,202.283 216.138,203.629 215.667 C 214.879 211.730,226.739 205.086,232.307 199.601 C 232.553 199.358,233.261 198.727,233.880 198.197 C 254.123 180.881,263.665 147.510,255.970 120.944 C 248.041 93.569,224.976 71.033,199.803 66.066 C 198.830 65.874,196.087 65.328,193.707 64.853 C 189.634 64.040,113.073 63.288,105.940 63.991 M188.392 64.697 C 188.644 64.852,190.208 65.126,191.868 65.304 C 197.227 65.881,204.245 67.576,208.260 69.264 C 208.692 69.446,209.938 69.936,211.029 70.354 C 212.119 70.772,213.800 71.549,214.765 72.080 C 215.730 72.612,217.581 73.625,218.879 74.331 C 231.752 81.332,243.016 92.965,249.206 105.653 C 250.248 107.790,251.439 110.038,251.852 110.650 C 252.266 111.261,252.744 112.323,252.914 113.009 C 253.085 113.696,253.414 114.789,253.645 115.438 C 254.492 117.816,256.399 124.569,257.088 127.630 C 258.113 132.179,258.116 149.301,257.093 154.179 C 255.706 160.798,254.580 165.103,253.647 167.355 C 253.468 167.788,252.691 169.693,251.920 171.589 C 247.510 182.431,238.744 194.100,229.892 200.910 C 228.594 201.909,227.355 202.919,227.139 203.155 C 226.597 203.746,221.186 207.276,220.822 207.276 C 220.659 207.276,219.979 207.678,219.309 208.169 C 217.362 209.597,210.182 212.852,205.506 214.426 C 200.946 215.961,200.913 215.773,207.801 227.335 C 209.540 230.256,211.566 233.795,212.302 235.202 C 213.038 236.608,214.756 239.617,216.121 241.888 C 219.860 248.113,222.549 252.857,222.820 253.710 C 222.953 254.130,223.206 254.474,223.383 254.474 C 223.559 254.474,223.818 254.784,223.957 255.162 C 224.096 255.541,224.515 256.386,224.888 257.040 C 226.369 259.638,228.749 263.652,229.394 264.640 C 229.770 265.214,230.242 266.054,230.443 266.508 C 230.645 266.962,231.503 268.466,232.351 269.851 C 233.199 271.236,234.413 273.343,235.050 274.533 C 235.686 275.723,236.645 277.411,237.179 278.284 C 238.694 280.758,238.946 281.185,241.127 284.956 C 242.254 286.903,243.680 289.425,244.297 290.562 C 244.915 291.699,245.864 293.332,246.407 294.192 C 246.950 295.052,247.394 295.862,247.394 295.991 C 247.394 296.121,248.589 298.225,250.049 300.667 C 251.509 303.109,253.412 306.380,254.277 307.936 C 255.143 309.493,256.234 311.360,256.702 312.086 C 257.170 312.813,257.450 313.510,257.325 313.636 C 257.199 313.761,242.179 313.864,223.947 313.864 L 190.797 313.864 189.827 312.586 C 189.293 311.883,188.200 310.069,187.398 308.555 C 185.620 305.195,185.320 304.673,183.962 302.564 C 183.373 301.649,182.891 300.800,182.891 300.677 C 182.891 300.554,182.304 299.533,181.587 298.408 C 180.870 297.283,180.011 295.831,179.677 295.182 C 179.088 294.037,175.717 288.120,174.748 286.529 C 174.484 286.096,174.142 285.477,173.987 285.152 C 173.832 284.828,173.600 284.474,173.472 284.366 C 173.344 284.258,173.027 283.727,172.768 283.186 C 172.510 282.645,171.763 281.318,171.110 280.236 C 170.456 279.154,169.798 278.004,169.647 277.679 C 169.105 276.516,165.895 271.186,165.621 270.993 C 165.466 270.885,165.168 270.177,164.958 269.420 C 164.657 268.334,164.352 268.017,163.511 267.919 L 162.445 267.795 162.343 290.731 L 162.242 313.668 133.333 313.668 L 104.425 313.668 104.309 191.544 C 104.245 124.376,104.302 68.323,104.436 66.982 L 104.680 64.544 106.519 64.387 C 109.778 64.108,187.918 64.404,188.392 64.697 " stroke="none" fill="#689ccc" fill-rule="evenodd"></path><path id="path4" d="M282.399 255.669 C 278.647 256.537,277.498 256.949,274.657 258.441 C 268.454 261.701,260.767 270.018,260.767 273.471 C 260.767 273.752,260.616 274.150,260.432 274.356 C 258.359 276.669,257.953 288.273,259.752 293.805 C 263.879 306.502,274.954 314.616,288.242 314.679 C 291.935 314.696,295.936 314.062,298.328 313.079 C 323.058 302.923,325.202 270.895,301.986 258.427 C 296.764 255.623,287.960 254.383,282.399 255.669 " stroke="none" fill="#847c64" fill-rule="evenodd"></path></g></svg>